Coordinates
version=1
nRows=8
nColumns=46
inDegrees=yes

Units are S.I. units (second, meters, Newtons, ...)
Angles are in degrees.

endheader
time	pelvis_tilt	pelvis_list	pelvis_rotation	pelvis_tx	pelvis_ty	pelvis_tz	bb_angle	bb_tx	bb_ty	bb_tz	hip_flexion_r	hip_adduction_r	hip_rotation_r	knee_angle_r	knee_angle_r_beta	ankle_angle_r	subtalar_angle_r	mtp_angle_r	crank_angle_r	hip_flexion_l	hip_adduction_l	hip_rotation_l	knee_angle_l	knee_angle_l_beta	ankle_angle_l	subtalar_angle_l	mtp_angle_l	crank_angle_l	lumbar_extension	lumbar_bending	lumbar_rotation	arm_flex_r	arm_add_r	arm_rot_r	elbow_flex_r	pro_sup_r	wrist_flex_r	wrist_dev_r	arm_flex_l	arm_add_l	arm_rot_l	elbow_flex_l	pro_sup_l	wrist_flex_l	wrist_dev_l
      2.50000000	    -19.40967285	      5.72694873	      2.59837992	      0.39909039	      1.19346228	     -0.24097153	      0.00000000	      0.50000000	      0.00000000	      0.25000000	     31.47901116	    -13.13675544	     -9.03507940	     32.66892089	      0.57018023	     -7.06245066	      3.41181101	      0.00000000	      0.00000000	     66.17865949	    -10.30101217	     -3.90449332	    107.39860750	      1.87445931	     10.34806152	     12.14072360	      0.00000000	      0.00000000	    -46.41997167	     -2.10174866	      1.21222399	     48.98307472	    -28.69173784	     36.41025885	     56.34133899	     46.23552148	      0.00000000	      0.00000000	     62.50435264	     -4.79188735	     51.93498106	     24.29606503	     47.06971924	      0.00000000	      0.00000000
      2.50500000	    -19.67324446	      5.81801747	      2.81238259	      0.39940186	      1.19552166	     -0.24119645	      0.00000000	      0.50000000	      0.00000000	      0.25000000	     30.92929406	    -13.27011742	     -9.44538015	     31.52361746	      0.55019092	     -8.11457470	      3.66845465	      0.00000000	      0.00000000	     66.53430625	     -9.88445591	     -3.88786600	    107.17571418	      1.87056909	     10.93740482	     12.18193957	      0.00000000	      0.00000000	    -46.29567097	     -2.30298615	      0.42354372	     50.04801532	    -26.98636281	     36.73862395	     53.37509963	     46.06440955	      0.00000000	      0.00000000	     62.85448921	     -6.10747369	     54.93393555	     24.82685942	     47.54537805	      0.00000000	      0.00000000
      2.51000000	    -20.05549638	      5.88929476	      3.00253159	      0.39962652	      1.19748037	     -0.24143038	      0.00000000	      0.50000000	      0.00000000	      0.25000000	     30.54604365	    -13.36234740	     -9.78049413	     30.42357425	      0.53099154	     -9.14176432	      3.96572243	      0.00000000	      0.00000000	     67.01614956	     -9.46339416	     -3.85621812	    106.92817438	      1.86624871	     11.51425599	     12.10347156	      0.00000000	      0.00000000	    -46.19699489	     -2.61145730	      0.26798963	     50.02154434	    -27.01107472	     36.70681995	     53.16723398	     46.03579800	      0.00000000	      0.00000000	     63.05377507	     -5.96032135	     54.98536297	     24.92745261	     47.55881997	      0.00000000	      0.00000000
      2.51500000	    -20.10047665	      5.80472099	      3.31047479	      0.40019341	      1.20031243	     -0.24177331	      0.00000000	      0.50000000	      0.00000000	      0.25000000	     29.59298262	    -13.32660340	    -10.44265592	     29.02417273	      0.50656738	    -10.53637912	      4.00586723	      0.00000000	      0.00000000	     67.12781420	     -9.01853905	     -3.62273782	    106.61986441	      1.86086768	     12.06565092	     12.06535346	      0.00000000	      0.00000000	    -46.40377274	     -2.62415997	     -0.11670304	     50.63670538	    -25.80479484	     36.27767183	     50.92038432	     45.73809422	      0.00000000	      0.00000000	     63.38534905	     -6.01323507	     55.86217813	     24.59728699	     47.56661746	      0.00000000	      0.00000000
      2.52000000	    -20.42898402	      5.85593241	      3.54625065	      0.40058637	      1.20267261	     -0.24203298	      0.00000000	      0.50000000	      0.00000000	      0.25000000	     29.16364916	    -13.44360689	    -10.94516939	     27.92003282	      0.48729650	    -11.90358685	      4.28005479	      0.00000000	      0.00000000	     67.49130281	     -8.54040344	     -3.55984039	    106.29302651	      1.85516328	     12.66486513	     11.97203220	      0.00000000	      0.00000000	    -46.39741427	     -2.88161163	     -0.27785312	     50.60726315	    -25.81539068	     36.24114513	     50.60621760	     45.69695733	      0.00000000	      0.00000000	     63.57216254	     -5.90899482	     55.96576623	     24.75380051	     47.59600639	      0.00000000	      0.00000000
      2.52500000	    -20.57829732	      5.77853316	      3.81026505	      0.40106820	      1.20551604	     -0.24249422	      0.00000000	      0.50000000	      0.00000000	      0.25000000	     28.44307379	    -13.41814276	    -11.54399668	     26.65187464	      0.46516296	    -13.44521554	      4.45889361	      0.00000000	      0.00000000	     67.66857392	     -8.05594422	     -3.35803462	    105.92410457	      1.84872438	     13.27140691	     11.84329751	      0.00000000	      0.00000000	    -46.58348287	     -2.95201799	     -0.40689314	     50.80306528	    -25.61008162	     36.08580484	     49.92498376	     45.58575440	      0.00000000	      0.00000000	     63.83311531	     -5.79377289	     56.18981633	     24.88105012	     47.63578903	      0.00000000	      0.00000000
      2.53000000	    -20.74513810	      5.73071791	      4.03006228	      0.40153711	      1.20840261	     -0.24271824	      0.00000000	      0.50000000	      0.00000000	      0.25000000	     27.76315681	    -13.36510784	    -12.04410881	     25.38039595	      0.44297147	    -14.95893151	      4.55660118	      0.00000000	      0.00000000	     67.82563035	     -7.61510451	     -3.20781633	    105.50980890	      1.84149356	     13.86379341	     11.70582501	      0.00000000	      0.00000000	    -46.68407324	     -3.05174195	     -0.97296838	     51.73898354	    -23.98726138	     35.82130396	     47.09394568	     45.26007012	      0.00000000	      0.00000000	     64.27731328	     -6.32139511	     57.78661353	     24.77382091	     47.79387123	      0.00000000	      0.00000000
      2.53500000	    -21.15658969	      5.77134990	      4.19563850	      0.40179194	      1.21087938	     -0.24302768	      0.00000000	      0.50000000	      0.00000000	      0.25000000	     27.56168239	    -13.45519549	    -12.44065248	     24.39225234	      0.42572512	    -16.56518850	      4.91070214	      0.00000000	      0.00000000	     68.20648933	     -7.13822230	     -3.16585484	    105.07310083	      1.83387156	     14.50216848	     11.51781769	      0.00000000	      0.00000000	    -46.61869612	     -3.33049823	     -1.11867756	     51.75816818	    -23.96540409	     35.80537096	     46.91212012	     45.23875502	      0.00000000	      0.00000000	     64.52437064	     -6.17027890	     57.86152870	     24.89417448	     47.81338559	      0.00000000	      0.00000000
